<svg aria-hidden="true" style="position: absolute; width: 0; height: 0; overflow: hidden;" version="1.1" xmlns="http://www.w3.org/2000/svg" xmlns:xlink="http://www.w3.org/1999/xlink">
<defs>
<symbol id="heart" viewBox="0 0 24 24">
<path d="M21.5 3.9v0c-1.2-1.2-2.8-1.9-4.5-1.9v0c-1.7 0-3.4 0.7-4.6 1.9 0 0 0 0 0 0l-0.4 0.4-0.4-0.4c-1.2-1.2-2.8-1.9-4.6-1.9-1.7 0-3.3 0.7-4.5 1.9s-2 2.9-2 4.6 0.7 3.4 1.9 4.6l8.8 8.8c0.2 0.2 0.4 0.3 0.7 0.3s0.5-0.1 0.7-0.3l8.8-8.8c2.7-2.5 2.7-6.7 0.1-9.2zM20.1 11.7l-8.1 8.1-8.1-8.1c-1.8-1.8-1.8-4.6 0-6.4 0.8-0.9 2-1.3 3.1-1.3 1.2 0 2.3 0.4 3.2 1.3l1.1 1.1c0.4 0.4 1 0.4 1.4 0l1-1.1c0 0 0 0 0 0 0.9-0.8 2-1.3 3.3-1.3 0 0 0 0 0 0 1.2 0 2.3 0.5 3.2 1.3v0c0.8 0.9 1.3 2 1.3 3.2s-0.5 2.3-1.4 3.2z"></path>
</symbol>
<symbol id="home" viewBox="0 0 24 24">
<path d="M21.6 8.2l-9-7c-0.4-0.3-0.9-0.3-1.2 0l-9 7c-0.3 0.2-0.4 0.5-0.4 0.8v11c0 1.7 1.3 3 3 3h14c1.7 0 3-1.3 3-3v-11c0-0.3-0.1-0.6-0.4-0.8zM14 21h-4v-8h4v8zM20 20c0 0.6-0.4 1-1 1h-3v-9c0-0.6-0.4-1-1-1h-6c-0.6 0-1 0.4-1 1v9h-3c-0.6 0-1-0.4-1-1v-10.5l8-6.2 8 6.2v10.5z"></path>
</symbol>
</defs>
</svg>
