<svg id="locatia" data-name="locatia" xmlns="http://www.w3.org/2000/svg" xmlns:xlink="http://www.w3.org/1999/xlink" viewBox="0 0 191 268.27"><defs><style>.cls-1,.cls-11,.cls-3,.cls-6,.cls-7{fill:none;}.cls-2{fill:#fff;}.cls-11,.cls-3,.cls-7{stroke:#fff;}.cls-11,.cls-3,.cls-6,.cls-7{stroke-miterlimit:10;}.cls-3,.cls-6,.cls-7{stroke-width:4px;}.cls-4{fill:#8cc63f;}.cls-5{fill:#009245;}.cls-6{stroke:#8cc63f;}.cls-7{stroke-linecap:round;}.cls-8{isolation:isolate;}.cls-9{clip-path:url(#clip-path);}.cls-10{clip-path:url(#clip-path-2);}.cls-11{stroke-width:3px;}</style><clipPath id="clip-path" transform="translate(-25 -46.36)"><rect class="cls-1" x="38.02" y="209.17" width="162.68" height="55.38"/></clipPath><clipPath id="clip-path-2" transform="translate(-25 -46.36)"><polyline class="cls-1" points="38.02 264.55 38.02 209.17 200.7 209.17 200.7 264.55 38.02 264.55"/></clipPath></defs><title>locatia-logo</title><path class="cls-2" d="M41.64,146.59h-.22l.21,0Z" transform="translate(-25 -46.36)"/><circle class="cls-3" cx="94.35" cy="129.77" r="15.09"/><polygon class="cls-4" points="45.81 34.49 95.64 0 95.64 41.43 45.81 62.49 45.81 34.49"/><polygon class="cls-5" points="144.4 34.49 95.64 0 95.64 41.43 144.4 62.49 144.4 34.49"/><line class="cls-6" x1="61.77" y1="94.49" x2="128.44" y2="94.49"/><path class="cls-2" d="M27.1,312.34q-2.1-2-2.1-6.53V278.26h7.22v26.38q0,3.17,3.21,3.17H46.84v6.53H33.53C30.64,314.34,28.49,313.68,27.1,312.34Z" transform="translate(-25 -46.36)"/><path class="cls-2" d="M56.3,313.22a9.36,9.36,0,0,1-4.77-5.36q-1.62-3.94-1.61-11.51t1.63-11.53a9.7,9.7,0,0,1,4.8-5.44,20.5,20.5,0,0,1,8.44-1.46,20.45,20.45,0,0,1,8.46,1.46A9.6,9.6,0,0,1,78,284.82q1.62,4,1.61,11.53T78,307.86a9.36,9.36,0,0,1-4.75,5.36,20.84,20.84,0,0,1-8.46,1.42A21.06,21.06,0,0,1,56.3,313.22Zm13.15-6a5.27,5.27,0,0,0,2.26-3.41,30.33,30.33,0,0,0,.69-7.49,31.31,31.31,0,0,0-.69-7.68,5.19,5.19,0,0,0-2.26-3.39,9.91,9.91,0,0,0-4.66-.88,9.76,9.76,0,0,0-4.61.88,5.31,5.31,0,0,0-2.31,3.41,29.61,29.61,0,0,0-.74,7.66,30.24,30.24,0,0,0,.69,7.51,5.25,5.25,0,0,0,2.26,3.39,9.78,9.78,0,0,0,4.71.9A9.64,9.64,0,0,0,69.45,307.25Z" transform="translate(-25 -46.36)"/><path class="cls-2" d="M89.75,313.2q-2.77-1.44-4.26-5.46T84,296.2Q84,289,85.54,285a10.06,10.06,0,0,1,4.36-5.54,15.22,15.22,0,0,1,7.27-1.53,36.33,36.33,0,0,1,6.24.51,37.77,37.77,0,0,1,5,1.19v5.61a33.25,33.25,0,0,0-4.14-.58c-1.79-.17-3.66-.25-5.61-.25a9,9,0,0,0-4.49.91,5.4,5.4,0,0,0-2.27,3.41,29.9,29.9,0,0,0-.7,7.53,32.64,32.64,0,0,0,.63,7.46,5.44,5.44,0,0,0,2.2,3.47,8.85,8.85,0,0,0,4.63,1,78.3,78.3,0,0,0,9.75-.49v5.56a37.29,37.29,0,0,1-11.36,1.42A16,16,0,0,1,89.75,313.2Z" transform="translate(-25 -46.36)"/><path class="cls-2" d="M122.52,278.26h9.12L143,314.34h-7.5l-2.3-7.55H120.87l-2.25,7.55h-7.41Zm8.93,22L127,284.45l-4.44,15.85Z" transform="translate(-25 -46.36)"/><path class="cls-2" d="M152,284.74h-9.9v-6.48h27.06v6.48h-9.95v29.6H152Z" transform="translate(-25 -46.36)"/><path class="cls-2" d="M173.09,278.26h7.22v36.08h-7.22Z" transform="translate(-25 -46.36)"/><path class="cls-2" d="M195.57,278.26h9.12L216,314.34h-7.51l-2.29-7.55H193.91l-2.24,7.55h-7.41Zm8.92,22-4.43-15.85-4.44,15.85Z" transform="translate(-25 -46.36)"/><path class="cls-7" d="M182.35,122.24c0,34.38-38.6,58.75-63,124.69" transform="translate(-25 -46.36)"/><path class="cls-7" d="M56.35,122.24c0,34.38,38.61,58.75,63,124.69" transform="translate(-25 -46.36)"/><g class="cls-8"><g class="cls-9"><g class="cls-10"><path class="cls-4" d="M163.94,209.17a2,2,0,0,0-1.89,1c-.34.79.24,1.64,1.28,1.9,10.3,2.53,18.76,5.92,24.54,9.79a24.91,24.91,0,0,1,6.58,6.06,11,11,0,0,1,2.24,6.41c0,3.53-1.95,6.93-5.73,10.17-5.65,4.84-15.42,9.15-27.86,12.18a188.84,188.84,0,0,1-43.74,4.82c-21.66,0-41.24-3.19-55.24-8.25-7-2.53-12.6-5.52-16.38-8.75S42,237.9,42,234.37A11,11,0,0,1,44.25,228c2.23-3.14,6.11-6.16,11.41-8.86a92.64,92.64,0,0,1,19.72-7c1.05-.26,1.61-1.11,1.27-1.9a2,2,0,0,0-1.89-1,2.79,2.79,0,0,0-.63.08c-10.67,2.62-19.58,6.15-25.94,10.39a28.36,28.36,0,0,0-7.47,6.9,13.42,13.42,0,0,0-2.7,7.83c0,4.41,2.48,8.54,6.73,12.16,6.39,5.45,16.74,9.9,29.63,13a192.81,192.81,0,0,0,45,5c22.16,0,42.25-3.24,57-8.54,7.36-2.66,13.38-5.84,17.64-9.48s6.74-7.75,6.74-12.16a13.44,13.44,0,0,0-2.72-7.83c-2.63-3.71-7-7-12.7-9.94a96.59,96.59,0,0,0-20.71-7.35,2.65,2.65,0,0,0-.63-.08" transform="translate(-25 -46.36)"/></g></g></g><rect class="cls-11" x="70.72" y="61.48" width="48.76" height="18.58"/><line class="cls-11" x1="95.1" y1="62.64" x2="95.1" y2="81.22"/></svg>