<svg aria-hidden="true" style="position: absolute; width: 0; height: 0; overflow: hidden;" version="1.1" xmlns="http://www.w3.org/2000/svg" xmlns:xlink="http://www.w3.org/1999/xlink">
<defs>
<symbol id="headset" viewBox="0 0 24 24">
<title>headset</title>
<path d="M12 2c-5.5 0-10 4.5-10 10v7c0 1.7 1.3 3 3 3h1c1.7 0 3-1.3 3-3v-3c0-1.7-1.3-3-3-3h-2v-1c0-4.4 3.6-8 8-8s8 3.6 8 8v1h-2c-1.7 0-3 1.3-3 3v3c0 1.7 1.3 3 3 3h1c1.7 0 3-1.3 3-3v-7c0-5.5-4.5-10-10-10zM6 15c0.6 0 1 0.4 1 1v3c0 0.6-0.4 1-1 1h-1c-0.6 0-1-0.4-1-1v-4h2zM20 19c0 0.6-0.4 1-1 1h-1c-0.6 0-1-0.4-1-1v-3c0-0.6 0.4-1 1-1h2v4z"></path>
</symbol>
<symbol id="home" viewBox="0 0 24 24">
<title>home</title>
<path d="M21.6 8.2l-9-7c-0.4-0.3-0.9-0.3-1.2 0l-9 7c-0.3 0.2-0.4 0.5-0.4 0.8v11c0 1.7 1.3 3 3 3h14c1.7 0 3-1.3 3-3v-11c0-0.3-0.1-0.6-0.4-0.8zM14 21h-4v-8h4v8zM20 20c0 0.6-0.4 1-1 1h-3v-9c0-0.6-0.4-1-1-1h-6c-0.6 0-1 0.4-1 1v9h-3c-0.6 0-1-0.4-1-1v-10.5l8-6.2 8 6.2v10.5z"></path>
</symbol>
<symbol id="send" viewBox="0 0 24 24">
<title>send</title>
<path d="M22.7 1.3c-0.3-0.3-0.7-0.4-1.1-0.2l-19 9c-0.4 0.2-0.6 0.6-0.6 1s0.3 0.8 0.8 0.9l7.4 1.9 1.9 7.4c0.1 0.4 0.5 0.7 0.9 0.8 0 0 0.1 0 0.1 0 0.4 0 0.7-0.2 0.9-0.6l9-19c0.1-0.5 0-0.9-0.3-1.2zM13.3 18l-1.3-5.2c-0.1-0.4-0.4-0.6-0.7-0.7l-5.3-1.4 13.9-6.6-6.6 13.9z"></path>
</symbol>
<symbol id="user" viewBox="0 0 24 24">
<title>user</title>
<path d="M16 14h-8c-2.8 0-5 2.2-5 5v2c0 0.6 0.4 1 1 1s1-0.4 1-1v-2c0-1.7 1.3-3 3-3h8c1.7 0 3 1.3 3 3v2c0 0.6 0.4 1 1 1s1-0.4 1-1v-2c0-2.8-2.2-5-5-5z"></path>
<path d="M12 12c2.8 0 5-2.2 5-5s-2.2-5-5-5-5 2.2-5 5 2.2 5 5 5zM12 4c1.7 0 3 1.3 3 3s-1.3 3-3 3-3-1.3-3-3 1.3-3 3-3z"></path>
</symbol>
<symbol id="disc" viewBox="0 0 24 24">
<title>disc</title>
<path d="M2.016 12c0-5.531 4.453-9.984 9.984-9.984s9.984 4.453 9.984 9.984-4.453 9.984-9.984 9.984-9.984-4.453-9.984-9.984z"></path>
</symbol>
</defs>
</svg>
